<svg width="10" height="10" viewBox="0 0 10 10" fill="none" xmlns="http://www.w3.org/2000/svg">
<path d="M2.1875 4.6875H8.4375C8.52038 4.6875 8.59987 4.72042 8.65847 4.77903C8.71708 4.83763 8.75 4.91712 8.75 5C8.75 5.08288 8.71708 5.16237 8.65847 5.22097C8.59987 5.27958 8.52038 5.3125 8.4375 5.3125H2.1875C2.10462 5.3125 2.02513 5.27958 1.96653 5.22097C1.90792 5.16237 1.875 5.08288 1.875 5C1.875 4.91712 1.90792 4.83763 1.96653 4.77903C2.02513 4.72042 2.10462 4.6875 2.1875 4.6875Z" fill="black"/>
<path d="M2.31688 5L4.90876 7.59125C4.96744 7.64993 5.0004 7.72952 5.0004 7.8125C5.0004 7.89549 4.96744 7.97507 4.90876 8.03375C4.85008 8.09243 4.77049 8.1254 4.68751 8.1254C4.60452 8.1254 4.52494 8.09243 4.46626 8.03375L1.65376 5.22125C1.62466 5.19222 1.60157 5.15774 1.58581 5.11977C1.57006 5.08181 1.56195 5.04111 1.56195 5C1.56195 4.9589 1.57006 4.9182 1.58581 4.88023C1.60157 4.84227 1.62466 4.80778 1.65376 4.77875L4.46626 1.96625C4.52494 1.90757 4.60452 1.87461 4.68751 1.87461C4.77049 1.87461 4.85008 1.90757 4.90876 1.96625C4.96744 2.02493 5.0004 2.10452 5.0004 2.1875C5.0004 2.27049 4.96744 2.35007 4.90876 2.40875L2.31688 5Z" fill="black"/>
</svg>
